<svg xmlns="http://www.w3.org/2000/svg" part="svg" fill="currentColor"
  viewBox="0 0 1673.000000 361.000000" preserveAspectRatio="xMidYMid meet">
  <g transform="translate(0.000000,361.000000) scale(0.100000,-0.100000)" stroke="none">
    <path d="M452 3459 c-58 -11 -137 -56 -174 -98 -17 -19 -43 -60 -57 -91 l-26
    -55 -3 -1380 c-2 -1032 0 -1394 9 -1435 23 -110 83 -190 181 -242 37 -20 58
    -23 148 -23 98 0 109 2 158 30 75 41 136 112 161 187 21 62 21 69 21 1433 0
    1203 -2 1378 -15 1430 -34 130 -126 215 -263 244 -59 12 -78 12 -140 0z"/>
    <path d="M11368 3447 c-88 -37 -149 -88 -190 -158 -86 -144 -73 -295 35 -415
    119 -132 296 -162 463 -80 76 38 115 75 161 153 26 45 28 55 28 158 0 96 -3
    116 -24 156 -39 76 -94 132 -166 169 -59 30 -78 35 -159 37 -78 3 -99 0 -148
    -20z"/>
    <path d="M8584 3352 c-84 -30 -150 -87 -187 -162 l-32 -65 0 -1385 0 -1385 35
    -64 c25 -48 50 -76 92 -107 76 -56 116 -69 213 -69 66 0 90 5 135 26 77 37
    131 87 165 155 l30 59 3 553 2 552 540 0 540 0 0 -544 0 -543 36 -71 c39 -79
    89 -127 170 -164 69 -32 199 -32 266 1 67 33 135 95 166 155 l27 51 0 1395 0
    1395 -27 50 c-32 62 -103 129 -166 158 -67 31 -207 31 -274 0 -63 -29 -134
    -96 -166 -158 l-27 -50 -3 -528 -3 -527 -542 2 -542 3 -5 525 -5 525 -23 43
    c-35 66 -95 125 -158 157 -74 37 -184 45 -260 17z"/>
    <path d="M4065 2719 c-302 -32 -572 -157 -774 -360 -194 -195 -319 -435 -366
    -704 -22 -123 -25 -367 -6 -480 72 -439 356 -799 758 -965 196 -81 276 -95
    543 -95 273 0 364 17 553 98 285 123 506 331 640 603 83 168 114 294 123 509
    15 312 -54 583 -206 814 -274 418 -747 634 -1265 580z m335 -674 c192 -51 370
    -225 437 -429 24 -72 27 -97 27 -226 1 -123 -2 -155 -21 -215 -53 -166 -173
    -305 -327 -380 -127 -62 -205 -78 -341 -72 -117 5 -166 17 -273 70 -130 65
    -241 196 -290 344 -37 113 -43 314 -13 434 29 117 82 217 160 301 102 110 203
    165 350 188 72 11 220 4 291 -15z"/>
    <path d="M6928 2705 c-165 -31 -297 -97 -410 -203 -34 -32 -38 -34 -44 -16
    -16 44 -81 124 -124 153 -92 63 -199 77 -311 41 -80 -25 -133 -62 -181 -125
    -78 -102 -73 -28 -73 -1165 l0 -1015 26 -55 c33 -69 88 -125 159 -159 49 -23
    67 -26 160 -26 91 0 111 3 150 24 75 39 125 86 161 153 l34 63 5 700 c5 689 6
    701 28 766 56 168 181 253 372 253 125 1 183 -19 256 -88 44 -41 60 -65 80
    -119 l24 -68 0 -703 c0 -766 -1 -758 57 -844 36 -53 105 -105 167 -126 62 -20
    159 -21 217 -1 72 25 153 95 185 162 l29 58 3 779 c2 658 0 793 -13 867 -57
    332 -295 599 -610 686 -77 21 -257 25 -347 8z"/>
    <path d="M1515 2683 c-122 -44 -193 -111 -235 -221 -20 -53 -20 -69 -18 -1075
    l3 -1022 23 -44 c32 -60 107 -132 167 -161 43 -22 64 -25 155 -25 98 0 109 2
    158 30 30 16 75 53 102 82 83 91 80 62 80 772 0 382 4 651 10 690 13 77 57
    168 107 217 20 20 64 49 97 65 87 40 166 46 347 24 124 -16 160 -17 206 -7
    115 24 208 114 238 228 21 79 19 132 -7 210 -38 118 -142 205 -280 236 -86 19
    -311 16 -392 -6 -106 -28 -201 -71 -272 -121 -35 -25 -64 -42 -64 -37 0 5 -23
    33 -52 62 -101 103 -255 145 -373 103z"/>
    <path d="M15231 2605 c-120 -18 -180 -36 -293 -86 -236 -104 -431 -296 -551
    -541 -90 -185 -128 -359 -128 -593 -1 -426 117 -726 383 -981 107 -102 203
    -165 341 -225 171 -73 280 -93 512 -93 309 -1 494 49 697 185 85 57 202 179
    233 244 58 118 40 241 -48 330 -63 62 -129 88 -227 88 -93 0 -156 -25 -257
    -100 -153 -115 -284 -163 -443 -163 -206 0 -390 105 -493 280 -39 67 -81 185
    -72 201 3 5 333 8 749 7 724 -1 744 0 788 20 65 28 122 84 148 145 47 106 34
    355 -27 552 -63 201 -227 420 -408 542 -129 87 -307 160 -445 183 -111 18
    -355 21 -459 5z m370 -595 c91 -28 182 -85 248 -155 57 -61 129 -181 116 -193
    -10 -10 -1047 -14 -1056 -5 -14 14 63 154 117 212 55 59 136 114 204 137 109
    38 258 39 371 4z"/>
    <path d="M12226 2594 c-67 -21 -156 -110 -179 -178 -32 -93 -34 -82 158 -611
    42 -115 92 -253 110 -305 19 -52 66 -183 105 -290 39 -107 107 -296 151 -420
    110 -310 169 -468 190 -511 26 -52 101 -115 168 -140 41 -16 87 -23 171 -26
    177 -8 277 19 363 96 54 49 43 23 192 431 29 80 58 156 64 170 9 22 123 326
    266 710 23 63 57 151 74 195 135 352 201 551 201 612 0 99 -68 201 -168 250
    -53 26 -66 28 -177 28 -106 0 -125 -3 -165 -23 -97 -51 -136 -112 -195 -312
    -20 -69 -52 -170 -70 -225 -19 -55 -68 -208 -110 -340 -43 -132 -96 -298 -120
    -370 -24 -71 -60 -185 -81 -252 -21 -68 -41 -123 -45 -123 -3 0 -16 35 -29 78
    -12 42 -37 127 -55 187 -19 61 -86 288 -150 505 -65 217 -137 463 -162 545
    -61 205 -91 252 -197 308 -54 28 -235 35 -310 11z"/>
    <path d="M11334 2551 c-78 -40 -125 -86 -161 -158 l-28 -58 0 -975 c0 -1091
    -4 -1031 71 -1119 168 -196 477 -161 588 65 l28 58 -1 974 c-2 963 -2 975 -23
    1030 -25 68 -100 147 -173 182 -40 20 -69 26 -145 28 -89 3 -99 2 -156 -27z"/>
  </g>
</svg>
