<svg version="1.0" xmlns="http://www.w3.org/2000/svg"
 fill="currentColor"
 width="1012.000000pt" height="246.000000pt" viewBox="0 0 1012.000000 246.000000"
 preserveAspectRatio="xMidYMid meet">
<g transform="translate(0.000000,246.000000) scale(0.100000,-0.100000)"
 stroke="none">
<path d="M1398 2239 c-146 -21 -297 -77 -447 -166 -111 -66 -244 -223 -309
-364 -26 -58 -39 -67 -76 -53 -13 5 -16 25 -16 114 0 62 -4 111 -10 115 -6 3
-10 48 -10 99 0 80 3 95 20 111 45 40 7 118 -47 99 -40 -14 -48 -64 -17 -106
20 -27 24 -43 24 -107 -1 -51 -5 -82 -15 -95 -11 -15 -15 -48 -15 -124 l0
-103 -52 -49 -53 -48 0 -233 c0 -309 7 -324 169 -375 100 -31 99 -30 125 -82
31 -62 25 -70 -45 -60 -33 4 -97 12 -144 18 -98 13 -135 31 -161 80 -17 31
-19 60 -19 271 0 130 -3 251 -6 268 -6 27 -11 32 -33 29 l-26 -3 -3 -259 c-3
-296 1 -316 71 -383 47 -44 92 -60 182 -62 33 -1 64 -6 70 -10 5 -5 53 -12
105 -16 l95 -7 70 -68 c72 -69 168 -140 189 -140 7 0 22 -9 34 -20 18 -17 22
-32 22 -76 0 -121 69 -175 295 -230 107 -26 438 -34 535 -13 29 6 57 12 63 13
83 18 206 65 236 90 34 30 60 94 61 146 0 25 4 50 8 56 4 6 34 25 67 44 86 48
270 236 314 320 33 63 36 66 90 82 31 10 70 20 86 24 17 4 45 21 63 38 58 54
62 75 62 313 0 196 -2 217 -21 254 -11 22 -36 49 -55 61 l-34 20 0 106 c-1 78
-5 112 -15 126 -10 14 -15 45 -15 99 0 74 2 82 30 114 36 40 36 43 9 77 -25
32 -49 33 -77 3 -28 -29 -28 -62 -1 -81 19 -13 21 -24 21 -103 0 -102 -10
-288 -17 -319 -12 -57 -74 -30 -101 43 -9 26 -32 69 -51 96 -18 26 -33 51 -33
57 0 12 -137 150 -169 170 -13 8 -33 22 -45 31 -70 53 -279 138 -381 155 -122
20 -177 23 -345 23 -107 -1 -221 -5 -252 -10z m487 -60 c283 -35 538 -176 674
-373 50 -72 99 -189 112 -264 6 -37 15 -83 20 -102 12 -42 6 -221 -10 -305
-17 -89 -59 -204 -92 -253 -16 -24 -29 -47 -29 -52 0 -19 -154 -170 -207 -203
-90 -56 -200 -107 -257 -118 -28 -6 -59 -15 -68 -20 -16 -8 -67 -17 -198 -36
-132 -19 -475 3 -537 35 -10 5 -39 14 -64 20 -63 16 -201 84 -273 135 -63 44
-76 61 -53 70 21 8 118 -11 162 -32 88 -41 178 -54 203 -29 16 16 15 93 0 106
-12 9 -80 23 -138 27 -14 1 -32 -4 -41 -12 -14 -11 -33 -12 -110 -4 -52 6
-103 13 -114 15 -11 2 -31 5 -45 5 -34 1 -102 103 -142 214 -27 76 -30 95 -35
264 -8 237 3 305 67 438 41 84 62 115 137 191 178 185 367 264 713 297 54 6
225 -2 325 -14z m-630 -1746 c70 -26 245 -46 400 -46 147 -1 345 20 395 41 45
19 119 35 135 29 8 -4 15 -17 15 -30 0 -26 -36 -86 -60 -98 -44 -23 -183 -70
-235 -79 -96 -17 -339 -19 -440 -4 -133 20 -269 70 -306 111 -28 32 -39 80
-22 97 9 9 64 -1 118 -21z"/>
<path d="M1063 1800 c-82 -19 -180 -94 -205 -158 -44 -108 -49 -185 -19 -303
29 -117 72 -192 165 -284 93 -94 170 -140 305 -185 113 -38 112 -38 226 -51
221 -27 414 9 624 114 146 73 268 214 319 370 25 73 27 223 4 292 -47 146
-178 225 -353 213 -119 -9 -192 -66 -292 -227 -42 -68 -62 -85 -128 -102 -91
-24 -187 27 -243 132 -58 106 -125 167 -208 187 -52 13 -145 14 -195 2z m171
-199 c26 -27 28 -33 27 -122 -1 -87 -3 -95 -28 -121 -33 -35 -63 -36 -102 -2
-31 26 -31 27 -31 124 0 83 3 101 21 124 29 37 76 36 113 -3z m968 2 c27 -26
28 -31 28 -121 0 -90 -1 -95 -29 -123 -35 -34 -68 -37 -105 -8 -25 20 -26 24
-26 130 0 96 2 111 20 129 29 29 78 26 112 -7z m-745 -362 c98 -38 342 -35
427 6 93 44 86 -49 -11 -157 -52 -58 -126 -90 -208 -90 -59 0 -148 29 -189 61
-41 32 -86 108 -93 155 -7 52 0 54 74 25z"/>
<path d="M3292 1263 l3 -428 95 0 95 0 5 140 5 140 76 3 76 3 27 -35 c14 -19
26 -37 26 -40 0 -10 114 -201 125 -208 12 -9 179 -11 188 -2 6 6 -19 58 -66
136 -92 154 -93 158 -44 181 40 19 58 39 86 94 18 35 21 60 21 153 0 98 -3
116 -25 159 -31 62 -74 94 -160 119 -11 3 -136 7 -278 9 l-257 4 2 -428z m495
235 c26 -27 33 -43 36 -88 5 -59 -17 -112 -50 -125 -21 -8 -261 -8 -274 0 -5
4 -9 60 -9 126 l0 119 133 0 133 0 31 -32z"/>
<path d="M4754 1673 c-3 -10 -19 -49 -35 -88 -15 -38 -35 -88 -42 -110 -8 -22
-27 -71 -42 -110 -15 -38 -37 -95 -48 -125 -11 -30 -34 -93 -52 -140 -18 -47
-43 -112 -55 -145 -12 -33 -26 -70 -31 -83 -5 -13 -7 -27 -4 -31 2 -5 42 -9
88 -10 95 -2 94 -3 121 79 31 92 26 90 207 90 182 0 178 2 214 -104 22 -66 28
-68 135 -64 60 2 75 6 73 18 -1 8 -24 74 -52 145 -28 72 -51 137 -51 146 0 8
-4 19 -9 25 -6 5 -21 41 -34 79 -25 71 -63 166 -78 196 -4 9 -22 61 -40 115
-18 55 -39 107 -47 117 -13 14 -32 17 -114 17 -85 0 -99 -2 -104 -17z m136
-295 c7 -18 28 -72 48 -121 19 -48 32 -91 28 -95 -4 -4 -52 -9 -107 -10 -117
-5 -115 -8 -68 113 48 124 59 145 73 145 8 0 19 -15 26 -32z"/>
<path d="M5821 1670 c-30 -11 -61 -26 -71 -35 -9 -8 -20 -15 -23 -15 -15 0
-79 -79 -104 -130 -27 -54 -28 -59 -28 -230 0 -147 3 -180 18 -209 9 -19 17
-40 17 -48 0 -7 19 -34 43 -60 47 -51 132 -96 213 -113 53 -11 262 -9 299 3
11 3 43 13 72 20 60 17 77 28 126 83 46 52 60 104 61 229 l1 100 -185 0 -185
0 -3 -72 -3 -72 88 -3 c76 -3 88 -5 91 -21 5 -25 -43 -75 -95 -99 -87 -39
-227 -26 -291 26 -15 13 -37 28 -49 34 -24 13 -26 35 -27 222 -1 111 16 152
84 214 l42 38 128 -4 129 -3 41 -40 c22 -21 40 -47 40 -57 0 -16 10 -18 93
-18 52 0 96 2 99 5 3 3 -4 31 -14 63 -24 71 -99 151 -172 184 -45 20 -69 23
-216 25 -144 3 -172 1 -219 -17z"/>
<path d="M7129 1686 c-4 -4 -16 -8 -27 -11 -41 -8 -109 -43 -147 -76 -44 -39
-89 -128 -106 -207 -11 -53 -8 -244 4 -287 20 -69 29 -92 57 -136 46 -70 130
-121 230 -137 14 -3 84 -5 155 -6 168 -1 252 22 326 91 67 63 80 103 77 238
l-3 110 -185 0 -185 0 0 -70 0 -70 85 -5 c70 -4 85 -8 88 -22 6 -30 -35 -74
-90 -98 -44 -19 -65 -22 -144 -18 -81 3 -96 7 -128 31 -19 15 -48 44 -62 63
-25 32 -28 45 -32 143 -3 82 0 121 12 165 19 63 63 118 110 135 40 16 220 14
260 -3 37 -16 76 -60 76 -87 0 -17 9 -19 100 -19 114 0 112 -2 79 82 -27 69
-79 122 -159 161 -64 31 -69 32 -225 35 -88 2 -163 1 -166 -2z"/>
<path d="M8092 1263 l3 -428 345 0 345 0 3 78 3 77 -239 0 c-172 0 -241 3
-250 12 -9 9 -12 100 -12 350 l0 338 -100 0 -100 0 2 -427z"/>
<path d="M9185 1678 c-3 -7 -4 -200 -3 -428 l3 -415 345 0 345 0 0 75 0 75
-245 5 -245 5 -3 78 c-2 50 1 84 9 93 9 11 48 14 185 14 l174 0 0 75 0 75
-168 0 c-120 0 -173 4 -186 13 -14 10 -16 26 -14 97 l3 85 245 5 245 5 0 75 0
75 -343 3 c-269 2 -344 0 -347 -10z"/>
</g>
</svg>
