<svg version="1.0" xmlns="http://www.w3.org/2000/svg"
 fill="currentColor"
 width="433.000000pt" height="339.000000pt" viewBox="0 0 433.000000 339.000000"
 preserveAspectRatio="xMidYMid meet">
<g transform="translate(0.000000,339.000000) scale(0.100000,-0.100000)"
 stroke="none">
<path d="M1995 3091 c-6 -5 -35 -12 -65 -14 -57 -5 -98 -14 -245 -50 -74 -19
-303 -119 -339 -148 -25 -21 -88 -59 -97 -59 -15 0 -193 -182 -225 -230 -16
-24 -41 -61 -57 -84 -30 -45 -107 -200 -107 -216 0 -6 -12 -15 -26 -21 -31
-11 -74 10 -75 39 0 9 0 73 1 143 1 114 -1 127 -20 144 -18 16 -20 30 -20 136
0 118 0 118 31 151 26 28 30 39 25 72 -5 45 -24 67 -58 71 -37 4 -69 -25 -75
-71 -4 -33 0 -44 26 -73 31 -34 31 -35 31 -151 0 -103 -2 -120 -20 -140 -18
-21 -20 -37 -20 -171 l0 -149 -37 -24 c-52 -34 -82 -69 -94 -108 -17 -53 -13
-606 4 -656 17 -48 52 -93 89 -116 25 -15 172 -66 191 -66 5 0 25 -7 44 -16
25 -12 42 -33 64 -75 16 -32 29 -67 29 -78 0 -19 -5 -20 -82 -16 -46 3 -105 9
-132 15 -28 6 -58 8 -68 5 -9 -4 -25 -2 -35 4 -10 5 -34 11 -53 13 -37 4 -110
35 -110 47 0 4 -8 16 -18 27 -35 38 -40 87 -42 411 -1 175 -4 336 -8 358 -6
35 -11 40 -36 43 -16 2 -32 -2 -37 -10 -13 -19 -11 -725 1 -733 6 -3 10 -16
10 -28 0 -44 103 -167 139 -167 10 0 32 -7 50 -16 18 -9 46 -14 62 -12 16 3
32 1 35 -4 3 -4 31 -8 63 -8 31 0 61 -4 66 -9 6 -5 44 -12 85 -15 204 -15 185
-8 280 -101 84 -82 200 -168 292 -214 56 -28 68 -55 68 -148 0 -36 6 -76 14
-92 21 -39 100 -109 133 -117 15 -4 33 -10 38 -14 14 -11 105 -42 132 -45 12
-2 27 -6 32 -10 6 -3 23 -8 38 -10 16 -3 45 -9 67 -14 21 -5 44 -7 51 -4 8 2
23 0 34 -7 26 -14 536 -16 554 -2 7 5 19 9 27 10 16 0 100 15 165 30 22 5 58
17 80 27 22 9 59 26 83 36 23 11 48 19 55 19 18 0 70 58 86 95 7 17 17 38 22
47 5 10 9 45 9 79 0 76 9 93 68 123 27 14 54 32 61 40 8 9 18 16 23 16 41 0
338 298 338 339 0 5 7 14 16 22 9 7 29 39 45 70 16 32 34 61 41 66 19 11 120
43 140 43 37 0 124 50 157 89 58 69 61 86 61 409 0 275 -1 295 -21 337 -26 55
-62 95 -87 95 -37 0 -42 19 -42 173 0 140 -1 151 -22 176 -22 25 -23 33 -18
141 4 101 8 118 27 137 12 12 29 33 38 47 16 23 16 27 -1 55 -33 57 -84 60
-126 8 -21 -28 -13 -74 18 -105 13 -13 24 -28 25 -35 3 -76 -4 -254 -11 -262
-5 -6 -11 -74 -13 -150 -3 -77 -6 -145 -8 -152 -4 -19 -47 -24 -77 -9 -25 13
-37 33 -73 126 -25 64 -151 244 -214 305 -72 69 -129 116 -165 135 -14 7 -27
16 -30 19 -14 17 -258 138 -291 145 -13 2 -51 14 -84 26 -33 11 -87 25 -120
31 -33 5 -89 15 -125 21 -85 14 -622 22 -635 9z m432 -71 c179 -14 375 -50
503 -93 60 -19 262 -127 330 -175 100 -71 187 -159 248 -252 65 -100 131 -227
144 -278 25 -97 30 -121 40 -177 12 -67 14 -370 3 -455 -4 -30 -11 -59 -16
-64 -5 -6 -9 -18 -9 -28 0 -31 -62 -212 -80 -233 -9 -11 -20 -28 -23 -37 -27
-75 -231 -308 -302 -345 -16 -9 -50 -30 -75 -47 -57 -40 -210 -116 -232 -116
-9 0 -19 -4 -22 -9 -3 -5 -20 -11 -38 -14 -54 -9 -92 -18 -113 -27 -48 -20
-136 -36 -250 -46 -38 -3 -77 -8 -85 -11 -21 -7 -320 -6 -328 1 -3 3 -40 6
-83 6 -43 0 -81 4 -84 10 -3 5 -26 10 -50 10 -24 0 -47 5 -50 10 -3 6 -21 10
-40 10 -19 0 -37 5 -40 10 -3 6 -16 10 -27 10 -65 0 -288 102 -421 193 -132
90 -135 128 -9 107 37 -6 77 -12 89 -14 13 -2 40 -14 60 -28 44 -29 81 -38
181 -45 94 -6 112 7 112 80 0 64 -19 87 -71 87 -21 0 -40 4 -43 8 -3 5 -32 10
-66 11 -47 2 -67 -2 -89 -18 -30 -22 -80 -28 -96 -12 -6 5 -44 12 -85 15 -216
17 -210 16 -252 71 -83 110 -168 318 -168 413 0 28 -5 54 -10 57 -13 8 -14
447 -1 461 5 5 11 27 14 49 8 60 22 116 41 158 80 182 121 241 281 399 64 64
173 148 192 148 4 0 26 14 47 30 22 17 48 30 58 30 10 0 26 4 36 10 67 38 373
114 506 125 33 3 61 7 64 10 9 8 173 6 309 -5z m-777 -2395 c50 -9 81 -19 86
-26 3 -5 15 -9 28 -9 12 0 26 -4 31 -9 10 -9 69 -18 190 -27 39 -3 74 -10 79
-15 13 -12 419 -12 431 0 6 5 42 12 80 15 114 9 179 18 190 26 6 4 28 10 50
14 22 4 64 16 93 27 61 22 93 24 110 7 41 -41 -34 -173 -114 -198 -16 -5 -67
-23 -114 -39 -47 -17 -95 -31 -107 -31 -12 0 -25 -4 -28 -10 -3 -5 -26 -10
-50 -10 -24 0 -47 -4 -50 -10 -4 -6 -100 -10 -255 -10 -155 0 -251 4 -255 10
-3 6 -30 10 -60 10 -30 0 -57 5 -60 10 -3 6 -16 10 -28 10 -38 0 -243 75 -274
101 -46 37 -73 81 -73 120 0 46 17 62 55 54 17 -4 37 -8 45 -10z"/>
<path d="M1510 2490 c-8 -5 -25 -10 -38 -10 -40 0 -151 -60 -208 -113 -58 -53
-101 -125 -116 -192 -16 -74 -9 -278 13 -357 21 -77 83 -207 121 -254 30 -36
177 -184 203 -204 71 -53 170 -110 191 -110 8 0 25 -7 37 -15 21 -13 127 -51
170 -60 9 -2 23 -7 29 -12 47 -28 385 -46 573 -30 54 5 81 10 195 36 32 7 86
29 132 52 10 5 25 9 33 9 17 0 137 58 145 70 3 4 21 15 40 25 33 17 47 27 135
99 41 33 127 144 174 224 17 29 44 92 60 140 24 75 28 104 30 214 2 113 -1
135 -24 204 -15 44 -42 97 -63 124 -40 51 -129 114 -183 131 -166 50 -197 51
-351 7 -21 -6 -45 -19 -54 -30 -10 -10 -22 -18 -28 -18 -21 -1 -114 -106 -152
-173 -22 -38 -44 -77 -50 -88 -29 -52 -83 -93 -157 -120 -56 -21 -122 -25
-132 -9 -3 6 -19 10 -35 10 -16 0 -42 11 -58 25 -16 13 -33 21 -37 17 -5 -4
-5 -2 -2 4 3 6 -10 26 -29 45 -20 19 -47 57 -61 84 -33 66 -122 185 -138 185
-3 0 -23 13 -43 28 -20 16 -57 34 -82 41 -25 7 -59 17 -76 22 -40 12 -145 11
-164 -1z m190 -278 l40 -39 0 -129 0 -130 -37 -36 c-48 -45 -66 -51 -115 -38
-66 18 -78 50 -78 207 l0 132 31 36 c27 30 37 35 75 35 36 0 49 -6 84 -38z
m1329 -4 l41 -43 0 -124 0 -124 -44 -43 c-42 -39 -48 -42 -88 -37 -56 7 -96
45 -98 93 -1 19 -2 86 -1 148 1 112 2 114 30 143 24 23 38 29 74 29 39 0 50
-5 86 -42z m-1031 -494 c42 -15 98 -28 123 -29 25 -1 62 -8 84 -15 37 -12 68
-11 220 10 87 12 136 24 172 43 67 35 104 8 82 -61 -13 -42 -14 -45 -50 -98
-45 -67 -112 -125 -176 -155 -56 -26 -74 -29 -160 -29 -57 0 -113 6 -133 14
-74 28 -111 47 -145 77 -41 37 -105 129 -105 152 0 9 -4 19 -10 22 -19 12 -9
95 12 95 5 0 44 -12 86 -26z"/>
</g>
</svg>
