<svg xmlns="http://www.w3.org/2000/svg" viewBox="0 0 345.000000 345.000000" preserveAspectRatio="xMidYMid meet">
  <g transform="translate(0.000000,345.000000) scale(0.100000,-0.100000)" stroke="none">
    <path d="M1616 3253 c-4 -4 -48 -11 -97 -14 -50 -4 -96 -12 -102 -18 -6 -6
    -22 -11 -36 -11 -29 0 -112 -25 -153 -46 -14 -8 -32 -14 -40 -14 -23 0 -164
    -76 -266 -144 -108 -71 -197 -148 -287 -246 -32 -36 -63 -66 -67 -68 -4 -2 -8
    -10 -8 -17 0 -7 -4 -15 -8 -17 -10 -4 -75 -95 -101 -141 -108 -195 -158 -334
    -198 -543 -25 -135 -22 -446 5 -580 19 -92 50 -197 72 -249 5 -11 19 -42 31
    -70 19 -44 144 -253 159 -265 3 -3 28 -34 55 -70 81 -105 211 -224 335 -305
    78 -51 258 -145 278 -145 8 0 26 -6 40 -14 38 -19 90 -37 137 -46 22 -5 58
    -13 80 -18 107 -27 160 -34 280 -39 107 -5 153 -2 260 17 72 12 135 25 140 30
    6 4 24 10 40 13 42 7 86 24 195 75 182 87 274 154 440 321 226 228 348 475
    421 856 22 114 17 397 -9 523 -23 110 -69 257 -103 332 -41 88 -74 155 -79
    160 -7 7 -29 42 -37 60 -4 8 -34 51 -66 95 -107 142 -288 307 -424 386 -22 13
    -61 35 -85 49 -23 14 -63 33 -88 44 -25 10 -58 23 -75 30 -66 28 -102 39 -140
    43 -22 3 -45 10 -52 15 -26 21 -429 49 -447 31z m325 -259 c79 -15 205 -51
    259 -75 14 -6 41 -18 60 -26 19 -8 42 -19 50 -24 8 -4 33 -18 56 -30 180 -93
    394 -323 493 -530 67 -138 83 -186 117 -334 35 -155 20 -516 -26 -630 -5 -11
    -16 -45 -25 -75 -81 -265 -334 -570 -590 -710 -161 -88 -198 -102 -377 -144
    -113 -27 -108 -30 -108 77 0 50 -3 286 -6 522 l-7 430 51 37 c35 26 58 54 77
    93 25 50 27 63 23 143 -5 99 -27 146 -92 195 -104 80 -237 73 -330 -18 -27
    -26 -49 -57 -53 -75 -3 -17 -10 -33 -14 -36 -5 -3 -9 -36 -9 -74 0 -91 26
    -150 96 -217 l54 -52 0 -196 0 -195 -46 0 c-51 0 -106 21 -229 88 -39 21 -133
    111 -179 171 -80 104 -122 212 -133 342 -3 41 -11 82 -17 90 -58 77 -182 61
    -206 -26 -13 -48 1 -210 25 -284 38 -116 115 -241 209 -340 58 -60 153 -139
    186 -154 8 -4 29 -16 45 -27 27 -18 60 -34 120 -59 46 -19 134 -41 166 -41 19
    0 40 -5 47 -12 14 -14 17 -344 3 -352 -24 -15 -223 26 -326 66 -290 115 -426
    218 -613 463 -46 60 -133 226 -156 298 -58 177 -70 255 -70 442 0 227 33 368
    137 580 100 205 331 449 516 546 23 11 44 25 47 30 3 5 13 9 23 9 10 0 24 7
    31 15 7 8 22 15 34 15 11 0 30 7 40 15 11 8 30 15 42 15 13 0 25 4 29 9 5 8
    145 44 215 54 70 11 285 6 361 -9z"/>
    <path d="M1684 2631 c-70 -32 -90 -115 -43 -182 24 -35 87 -56 184 -62 44 -3
    94 -10 110 -17 126 -51 184 -88 289 -185 56 -52 166 -227 166 -265 0 -9 4 -20
    9 -25 13 -13 33 -136 34 -200 0 -63 -22 -207 -34 -220 -5 -5 -9 -17 -9 -26 0
    -55 -136 -252 -246 -359 -20 -19 -45 -54 -55 -78 -18 -42 -18 -44 0 -81 29
    -57 65 -76 120 -65 44 9 233 199 297 299 147 231 196 580 113 810 -31 85 -97
    218 -111 223 -4 2 -8 8 -8 14 0 29 -145 185 -235 253 -110 83 -255 144 -404
    170 -107 19 -127 19 -177 -4z"/>
  </g>
</svg>
