<svg width="120" height="120" viewBox="0 0 120 120" fill="none" xmlns="http://www.w3.org/2000/svg">
<path d="M79 60L69.34 75H49.66L40 60L49.66 45H69.34L79 60Z" fill="#A8A8A8"/>
<path d="M79 27L69.34 42H49.66L40 27L49.66 12H69.34L79 27Z" fill="#A8A8A8"/>
<path d="M112 43.5L102.34 58.5H82.66L73 43.5L82.66 28.5H102.34L112 43.5Z" fill="#A8A8A8"/>
<path d="M112 76.5L102.34 91.5H82.66L73 76.5L82.66 61.5H102.34L112 76.5Z" fill="#A8A8A8"/>
<path d="M79 93L69.34 108H49.66L40 93L49.66 78H69.34L79 93Z" fill="#A8A8A8"/>
<path d="M46 76.5L36.34 91.5H16.66L7 76.5L16.66 61.5H36.34L46 76.5Z" fill="#A8A8A8"/>
<path d="M46 43.5L36.34 58.5H16.66L7 43.5L16.66 28.5H36.34L46 43.5Z" fill="#A8A8A8"/>
</svg>
